<?xml version="1.0" standalone="no"?>
<!DOCTYPE svg PUBLIC "-//W3C//DTD SVG 1.1//EN" "http://www.w3.org/Graphics/SVG/1.1/DTD/svg11.dtd">
<svg xmlns="http://www.w3.org/2000/svg" xmlns:xlink="http://www.w3.org/1999/xlink" version="1.1" viewBox="0 375 1280 1280">
   <!-- <rect width="100%" height="200%" fill="#000"/> -->
   <path fill="#af10ff"
d="M909.5 1582.5c-81 25 -159.832 37.5 -236.499 37.5c-104 0 -199.833 -22.833 -287.5 -68.5s-160.834 -112.167 -219.501 -199.5c-73.333 -107.333 -110 -224.333 -110 -351c0 -114 31 -224.667 93 -332s151 -201 267 -281l26 38c-35.333 37.333 -62 83.833 -80 139.5
s-27 116.167 -27 181.5c0 73.333 11.167 147.833 33.5 223.5s54.833 145.5 97.5 209.5c59.333 88 134.333 157 225 207s183 75 277 75c56.667 0 110 -9.33301 160 -28l22 36c-79.333 50 -159.5 87.5 -240.5 112.5z" />
</svg>